# xmcd
#
# Track frame offsets:
#   150
#   14003
#   31105
#   46475
#   63939
#   86310
#   103022
#   118789
#   135054
#   146092
#   163311
#   182739
#   203984
#   209701
#   228742
#   242354
#
# Disc length: 3553 seconds
#
# Revision: 0
# Processed by: cddbd v1.5.2PL0 Copyright (c) Steve Scherf et al.
# Submitted via: GXTranscoder 2.0.1939
#
DISCID=e10ddf10
DTITLE=Peeps - utopies dans le decor
DYEAR=1900
DGENRE=UnClassifiable
TTITLE0=melodie
TTITLE1=poterie des dieux
TTITLE2=liberta
TTITLE3=dans ma tete
TTITLE4=jte serre
TTITLE5=une utopie dans le decor
TTITLE6=fakir
TTITLE7=non identifie
TTITLE8=ca va
TTITLE9=de l air
TTITLE10=a l insouciance
TTITLE11=me contenter de rien
TTITLE12=ca vient
TTITLE13=liberta live
TTITLE14=tristan
TTITLE15=jte serre acoustique
EXTD=
EXTT0=
EXTT1=
EXTT2=
EXTT3=
EXTT4=
EXTT5=
EXTT6=
EXTT7=
EXTT8=
EXTT9=
EXTT10=
EXTT11=
EXTT12=
EXTT13=
EXTT14=
EXTT15=
PLAYORDER=
